<?xml version="1.0" encoding="UTF-8"?>
<svg version="1.1" xmlns="http://www.w3.org/2000/svg" width="500" height="500">
<path d="M0 0 C0.89090332 0.32371582 1.78180664 0.64743164 2.69970703 0.98095703 C18.00926474 6.60027034 32.50895877 13.67071543 45.6953125 23.34375 C49.17364259 25.84343129 52.81602365 28.07077387 56.45703125 30.32421875 C61.16242826 33.42501033 65.0285552 37.0285552 69 41 C74.11947304 46.02926671 74.11947304 46.02926671 80 50 C80 50.66 80 51.32 80 52 C80.66 52 81.32 52 82 52 C83.55078125 53.7578125 83.55078125 53.7578125 85.3125 56.125 C86.24642578 57.35863281 86.24642578 57.35863281 87.19921875 58.6171875 C87.79347656 59.40351562 88.38773437 60.18984375 89 61 C91.31985732 63.9241899 93.69653244 66.70451843 96.375 69.3125 C101.33408403 74.38965746 105.55628237 79.90064027 108.92578125 86.15625 C110.21086663 88.36192381 111.68459411 90.37401365 113.1875 92.4375 C120.6526961 103.02654426 126.38863944 114.0703633 130.671875 126.28125 C131.82664351 129.51460183 133.108271 132.61420555 134.5 135.75 C155.88970863 186.78268105 153.47362692 251.21789549 133.0703125 301.9921875 C132.38379978 303.66293858 131.69375081 305.33224142 131 307 C130.50064941 308.2051123 130.50064941 308.2051123 129.99121094 309.43457031 C124.26378722 323.11208365 117.68687534 335.7374356 108.7265625 347.62109375 C106.84263431 350.1037334 106.84263431 350.1037334 105.125 353.5 C102.68835538 358.01591469 99.00744462 361.55847113 95.53125 365.28515625 C93.36402891 367.60956776 91.26206166 369.96832649 89.1875 372.375 C86.57159344 375.38025079 83.85353357 378.21606481 81 381 C80.39285156 381.61746094 79.78570312 382.23492187 79.16015625 382.87109375 C70.08600222 392.0845822 70.08600222 392.0845822 66 395 C65.34 395 64.68 395 64 395 C63.67 395.99 63.34 396.98 63 398 C60.77934687 399.64470834 58.57790361 401.14768205 56.25 402.625 C54.86759354 403.51944999 53.48609778 404.4153089 52.10546875 405.3125 C51.41114746 405.76238281 50.71682617 406.21226562 50.00146484 406.67578125 C48.19464014 407.87122126 46.42951452 409.10344973 44.67578125 410.375 C37.11771061 415.83729447 29.40683059 420.09042389 20.98779297 424.05908203 C19.0882877 424.95820919 17.20160745 425.8799257 15.31640625 426.80859375 C5.47554608 431.60116023 -4.65843263 435.43297631 -15 439 C-16.10085938 439.391875 -17.20171875 439.78375 -18.3359375 440.1875 C-51.19412684 450.78157616 -89.24843485 450.12096962 -123 445 C-124.50644379 444.79248447 -126.01294882 444.58541282 -127.51953125 444.37890625 C-146.17686461 441.64019506 -163.79979727 435.20371542 -180.72558594 427.06591797 C-182.8107053 426.08871411 -184.90850473 425.18895549 -187.0390625 424.31640625 C-196.8285682 420.20711158 -205.5364573 414.60027071 -214.3125 408.6875 C-214.90264893 408.29338928 -215.49279785 407.89927856 -216.10083008 407.4932251 C-224.79443739 401.65843287 -232.40299886 395.20196578 -240 388 C-241.40878726 386.76181036 -242.82359615 385.53035352 -244.25 384.3125 C-251.13070046 378.31139424 -257.11160521 371.83342824 -262.82421875 364.7109375 C-264.33199533 362.83230744 -265.87231026 360.97950883 -267.4375 359.1484375 C-270.32744004 355.69076102 -272.82427527 352.00261151 -275.3125 348.25 C-275.76689453 347.57839844 -276.22128906 346.90679687 -276.68945312 346.21484375 C-280 341.2465343 -280 341.2465343 -280 339 C-280.66 339 -281.32 339 -282 339 C-283.44206141 336.48168311 -284.87871208 333.96052215 -286.3125 331.4375 C-286.91868164 330.38079102 -286.91868164 330.38079102 -287.53710938 329.30273438 C-289.99749029 324.96206236 -292.08683126 320.61645133 -294 316 C-294.74053735 314.36265253 -295.48574763 312.7274144 -296.234375 311.09375 C-319.0622012 260.68947476 -324.42165397 197.24083136 -305.625 144.3125 C-305.28976318 143.36189697 -304.95452637 142.41129395 -304.60913086 141.43188477 C-298.07851269 123.50766767 -290.12329108 105.55618937 -279 90 C-278.22875565 88.86923815 -277.46060973 87.7363578 -276.6953125 86.6015625 C-270.98512534 78.16807375 -265.23709608 70.01161007 -257.875 62.9453125 C-255.60777685 60.59306849 -253.64162192 58.06979252 -251.625 55.5 C-248.21929667 51.27302251 -244.82308739 48.04505105 -240.44140625 44.875 C-237.48427597 42.60392395 -234.823812 40.06469079 -232.125 37.5 C-226.83744185 32.53440286 -221.22724435 28.72877549 -215 25 C-213.55677567 24.0292904 -212.11906071 23.05032971 -210.6875 22.0625 C-196.1078866 12.29936603 -180.50770081 4.83715526 -164 -1 C-162.79472656 -1.433125 -161.58945313 -1.86625 -160.34765625 -2.3125 C-143.60967377 -8.12808566 -126.57602457 -11.85658237 -109 -14 C-107.93394531 -14.13277344 -106.86789063 -14.26554687 -105.76953125 -14.40234375 C-69.62217352 -17.96341948 -33.9238898 -12.50198397 0 0 Z M-134.75 20.875 C-135.71478271 21.13837158 -136.67956543 21.40174316 -137.67358398 21.6730957 C-139.58536925 22.19955701 -141.49554376 22.73191378 -143.40380859 23.27099609 C-145.67654713 23.90917526 -147.95463566 24.51574847 -150.23828125 25.11328125 C-164.74157864 29.18724119 -178.62322979 36.15886612 -191.03295898 44.66333008 C-194.16437051 46.79122857 -197.45131671 48.63408392 -200.73828125 50.5078125 C-203.15680293 52.10345202 -204.98275089 53.93055096 -207 56 C-206.25661377 55.92998779 -205.51322754 55.85997559 -204.74731445 55.7878418 C-196.27421618 55.05591832 -187.86953258 54.81374599 -179.37182617 54.81469727 C-177.20015778 54.81251273 -175.02900109 54.79427392 -172.85742188 54.77539062 C-159.76397456 54.72054596 -146.72278044 55.41327472 -134.3125 59.9375 C-133.56806641 60.18951172 -132.82363281 60.44152344 -132.05664062 60.70117188 C-121.8773248 64.2453504 -121.8773248 64.2453504 -120 68 C-120.89525391 67.96519531 -120.89525391 67.96519531 -121.80859375 67.9296875 C-151.0508382 67.32137929 -180.32379781 76.36600605 -208 85 C-208.90266602 85.2784375 -209.80533203 85.556875 -210.73535156 85.84375 C-224.92390336 90.28236824 -240.13022791 96.56386244 -251 107 C-251.33 107.66 -251.66 108.32 -252 109 C-248.30813104 108.29787581 -244.68955668 107.4293812 -241.0546875 106.4765625 C-218.788703 100.71631691 -218.788703 100.71631691 -208.5625 99.125 C-207.87462402 99.01752441 -207.18674805 98.91004883 -206.47802734 98.79931641 C-195.0797923 97.16787399 -183.68592836 96.85895057 -172.1875 96.9375 C-170.91068359 96.94201172 -169.63386719 96.94652344 -168.31835938 96.95117188 C-165.21218789 96.96280548 -162.10612092 96.97914925 -159 97 C-159 97.66 -159 98.32 -159 99 C-159.76828125 99.07605469 -160.5365625 99.15210938 -161.328125 99.23046875 C-166.41375576 100.29628711 -170.97449392 102.29581669 -175.75 104.3125 C-177.64047131 105.10062918 -179.53109551 105.88839172 -181.421875 106.67578125 C-182.3514502 107.06548096 -183.28102539 107.45518066 -184.23876953 107.85668945 C-186.8906379 108.95471771 -189.55524201 110.01285273 -192.2265625 111.0625 C-196.46447843 112.75104463 -200.55792809 114.62396149 -204.625 116.6875 C-205.29813232 117.0263623 -205.97126465 117.36522461 -206.66479492 117.71435547 C-212.98814178 120.93140678 -219.16444367 124.39337842 -225.3203125 127.91796875 C-228.40096454 129.67800264 -231.53239315 131.31422039 -234.6875 132.9375 C-240.16623439 135.90275205 -244.95696668 139.6422353 -249.8125 143.5078125 C-252.61723525 145.73440821 -255.53448024 147.7413776 -258.5 149.75 C-265.622246 154.84182727 -271.23246415 161.47140616 -277 168 C-273.80520109 168 -273.08088353 167.65356885 -270.48046875 166.0234375 C-269.79500977 165.60271973 -269.10955078 165.18200195 -268.40332031 164.74853516 C-267.67209961 164.29526855 -266.94087891 163.84200195 -266.1875 163.375 C-254.65764474 156.4242564 -242.93101438 151.7599838 -230 148 C-228.51472228 147.53542838 -227.03040595 147.06777603 -225.546875 146.59765625 C-212.84914665 142.61440679 -200.03836999 139.64387198 -187 137 C-187 137.99 -187 138.98 -187 140 C-187.82757813 140.22945313 -188.65515625 140.45890625 -189.5078125 140.6953125 C-193.70989497 142.26521803 -197.14636012 144.41148049 -200.875 146.875 C-201.61024902 147.35606201 -202.34549805 147.83712402 -203.10302734 148.33276367 C-212.98114205 154.87424731 -222.50312139 161.91827568 -231.45507812 169.6809082 C-233.22257145 171.19003691 -235.05162005 172.5798315 -236.9375 173.9375 C-243.08813086 178.49087401 -248.6060681 183.58227134 -254 189 C-255.01537351 189.9833775 -256.03237376 190.9650774 -257.05078125 191.9453125 C-263.82744438 198.52096417 -269.69108354 205.15304892 -275 213 C-275.6496875 213.88945312 -276.299375 214.77890625 -276.96875 215.6953125 C-280.09938259 219.99351708 -282.75332534 223.73626254 -284 229 C-275.19045497 222.60444929 -275.19045497 222.60444929 -267.29296875 215.1484375 C-264.16166716 212.21450926 -260.68048482 210.03943703 -257.0625 207.75 C-256.31049316 207.26982422 -255.55848633 206.78964844 -254.78369141 206.29492188 C-252.52621546 204.85725858 -250.26362457 203.42795679 -248 202 C-247.03441162 201.38608398 -247.03441162 201.38608398 -246.04931641 200.75976562 C-240.15028415 197.01263163 -234.47227277 193.66795977 -228 191 C-226.81019531 190.48179687 -225.62039062 189.96359375 -224.39453125 189.4296875 C-223.21246094 188.91664063 -222.03039062 188.40359375 -220.8125 187.875 C-219.62269531 187.35679687 -218.43289062 186.83859375 -217.20703125 186.3046875 C-214.77270691 185.31435336 -212.56190371 184.52128066 -210 184 C-210.97810582 185.12592245 -211.95758435 186.25065233 -212.9375 187.375 C-213.57429688 188.10589844 -214.21109375 188.83679688 -214.8671875 189.58984375 C-216.31262094 191.22323648 -217.77691847 192.84009351 -219.2578125 194.44140625 C-223.45614242 198.98841103 -227.1455675 203.48715169 -230.44702148 208.72070312 C-231.9380992 210.90914859 -233.52513989 212.78859653 -235.3125 214.73828125 C-238.89835248 218.78352117 -241.92327593 223.04119654 -244.875 227.5625 C-245.38748291 228.33899902 -245.89996582 229.11549805 -246.42797852 229.91552734 C-250.48759163 236.11081424 -254.34606089 242.41365265 -258.1015625 248.796875 C-259.62228706 251.36270657 -261.18828166 253.87468813 -262.8125 256.375 C-267.52160632 263.92580841 -269.75028761 271.20268248 -271 280 C-267.27143149 276.31923365 -263.67205056 272.54301443 -260.125 268.6875 C-259.59616211 268.11427002 -259.06732422 267.54104004 -258.52246094 266.95043945 C-255.71799162 263.90137432 -252.95346399 260.82700657 -250.25 257.6875 C-242.90783257 249.27386794 -234.13440163 240.06720082 -224 235 C-224.235979 235.61182129 -224.47195801 236.22364258 -224.71508789 236.85400391 C-246.09546166 291.17970152 -246.09546166 291.17970152 -237.78125 347.27734375 C-223.97351949 377.12412159 -196.34548877 397.23918784 -168 412 C-167.2570166 412.38736328 -166.5140332 412.77472656 -165.74853516 413.17382812 C-163.58746573 414.29294491 -161.42106253 415.40040712 -159.25 416.5 C-158.60667725 416.82645508 -157.96335449 417.15291016 -157.30053711 417.48925781 C-151.92071217 420.15961892 -147.08108942 422.35771114 -141 422 C-141.66 420.88625 -142.32 419.7725 -143 418.625 C-145 415.25 -145 415.25 -145 413 C-143.73929688 413.32613281 -142.47859375 413.65226562 -141.1796875 413.98828125 C-94.09903002 425.89054112 -48.25085906 423.2567405 -3.3125 404.5 C-2.26199463 404.06163818 -1.21148926 403.62327637 -0.12915039 403.17163086 C10.37734958 398.63956223 20.03413793 392.89657621 29.375 386.3125 C30.69505667 385.39156027 32.0153651 384.4709813 33.3359375 383.55078125 C33.95694336 383.11459473 34.57794922 382.6784082 35.21777344 382.22900391 C36.84165606 381.10919225 38.50133234 380.0417422 40.1640625 378.98046875 C43.14950559 376.8955932 45.47326134 374.61683942 48 372 C49.03046181 371.03898886 50.06857122 370.08612746 51.11328125 369.140625 C51.9012207 368.42712891 51.9012207 368.42712891 52.70507812 367.69921875 C53.79523782 366.71635302 54.88641769 365.73461788 55.97851562 364.75390625 C57.33691571 363.52206518 58.6708941 362.26339253 60 361 C60 360.67 60 360.34 60 360 C59.27522461 359.98541748 58.55044922 359.97083496 57.80371094 359.95581055 C54.45199502 359.88036228 51.10117254 359.78402834 47.75 359.6875 C46.61046875 359.66494141 45.4709375 359.64238281 44.296875 359.61914062 C33.69762308 359.287914 24.08985394 357.50083385 14.625 352.625 C13.50351562 352.06039063 12.38203125 351.49578125 11.2265625 350.9140625 C-10.76192069 337.87004705 -16.47788714 307.40193253 -24.0348053 284.75727844 C-25.58934821 280.12313562 -27.28094548 275.58414539 -29 271 C-67.94 271 -106.88 271 -147 271 C-159.5558957 297.15394972 -159.5558957 297.15394972 -159.0703125 326.12890625 C-155.03395325 333.18516932 -147.64100447 335.71591381 -140.4230957 338.55297852 C-138.58331138 339.29344563 -136.78696051 340.13984302 -135 341 C-134.67 341.99 -134.34 342.98 -134 344 C-161.39 344 -188.78 344 -217 344 C-216.67 341.03 -216.34 338.06 -216 335 C-214.18498308 333.58832018 -212.35151004 332.19413587 -210.43359375 330.92578125 C-196.06350215 319.55426414 -188.37347135 298.13768972 -182.3046875 281.50390625 C-180.47313046 276.58502402 -178.48603206 271.73320846 -176.5 266.875 C-176.13181152 265.96806396 -175.76362305 265.06112793 -175.38427734 264.12670898 C-173.50743525 259.53762651 -171.55742322 255.00261393 -169.47265625 250.50390625 C-167.00179966 245.11848626 -164.94849935 239.63270184 -162.9375 234.0625 C-159.50811654 224.71468833 -155.72985604 215.56365837 -151.75 206.4375 C-148.18282708 198.25249564 -144.90963973 190.19700848 -142.2578125 181.671875 C-140.32181386 176.02020196 -137.89889678 170.59256491 -135.51367188 165.11865234 C-130.43094251 153.44649729 -125.68000954 141.64615708 -121.3125 129.6875 C-118.58580367 122.23090103 -115.47156457 114.9401465 -112.37484741 107.63214111 C-110.39182992 102.94088356 -108.43378555 98.23917309 -106.4765625 93.53710938 C-105.58323962 91.39715205 -104.6839338 89.25966023 -103.7734375 87.12695312 C-100.2097896 78.72598317 -97.88503557 72.40379302 -101.03515625 63.3203125 C-101.35355469 62.55460937 -101.67195312 61.78890625 -102 61 C-102.33 60.01 -102.66 59.02 -103 58 C-96.13107071 58.04169759 -89.26294981 58.11405199 -82.39453125 58.20751953 C-80.05899355 58.23570929 -77.7233608 58.2569337 -75.38769531 58.27099609 C-72.02619841 58.29245246 -68.66584193 58.33911906 -65.3046875 58.390625 C-64.26384003 58.39185364 -63.22299255 58.39308228 -62.15060425 58.39434814 C-56.14193356 58.5151794 -52.56442905 58.97018968 -48 63 C-46.2421875 65.55859375 -46.2421875 65.55859375 -44.875 68.4375 C-44.19050781 69.82775391 -44.19050781 69.82775391 -43.4921875 71.24609375 C-42.12646682 74.42953025 -41.16973801 77.69596351 -40.1875 81.015625 C-37.98469901 88.33344873 -35.11310693 95.28572869 -32.125 102.3125 C-31.04821056 104.87468746 -29.97679863 107.43910586 -28.90625 110.00390625 C-28.39964844 111.2170752 -27.89304687 112.43024414 -27.37109375 113.68017578 C-24.21406543 121.32427675 -21.34076182 129.06523853 -18.6640625 136.890625 C-15.35086806 146.54049213 -11.5805191 155.92833252 -7.61132812 165.328125 C-4.94399537 171.66658189 -2.45049821 178.00134029 -0.21826172 184.50683594 C4.40746083 197.77033057 9.67525562 210.7871637 14.97094727 223.79370117 C18.00832486 231.26232703 20.96090985 238.69710251 23.42578125 246.37890625 C26.42669711 255.61320029 30.29024442 264.46201935 34.125 273.375 C35.2044127 275.8910446 36.2819871 278.40782795 37.35543823 280.92642212 C38.01627945 282.47630236 38.68049745 284.02474946 39.34890747 285.57138062 C41.22689176 289.96840117 42.85852013 294.38858812 44.31680298 298.94255066 C48.99838715 313.04115175 55.96216949 327.92919322 69.5 335.375 C72.98614992 336.24653748 76.42435245 336.63637483 80 337 C92.36145793 320.20866807 103.40164612 302.1796178 109 282 C109.4744817 280.452084 109.95260985 278.90528292 110.43359375 277.359375 C115.71872359 260.08963154 119.42498061 242.10061046 120 224 C120.03996094 223.04609375 120.07992188 222.0921875 120.12109375 221.109375 C120.85786374 187.30463445 112.79738873 150.42129894 96 121 C95.40316406 119.93136719 94.80632812 118.86273438 94.19140625 117.76171875 C92.50740906 114.81003548 90.77147581 111.89988164 89 109 C88.43539063 108.06542969 87.87078125 107.13085938 87.2890625 106.16796875 C81.27590767 96.44080652 74.12275341 87.98708829 66.375 79.6015625 C64.33085227 77.36241383 62.37869136 75.07763224 60.4375 72.75 C57.38426577 69.22037461 53.97810416 66.478657 50.2109375 63.73828125 C48 62 48 62 45.65625 59.609375 C42.67622652 56.68194017 39.53543907 54.33072568 36.125 51.9375 C35.53847656 51.51662109 34.95195312 51.09574219 34.34765625 50.66210938 C30.36347178 47.83815445 26.2658207 45.37022673 22 43 C20.78028041 42.29725311 19.56155067 41.59278574 18.34375 40.88671875 C-4.54987846 27.72236282 -27.92428935 20.31460393 -54 16 C-55.57817505 15.73630615 -55.57817505 15.73630615 -57.18823242 15.46728516 C-61.53964178 14.93384523 -65.78898991 14.81957502 -70.16796875 14.796875 C-71.04286453 14.79117493 -71.91776031 14.78547485 -72.81916809 14.77960205 C-74.67069304 14.77018879 -76.52223446 14.76363275 -78.3737793 14.75976562 C-81.13427341 14.75018473 -83.89398104 14.71917941 -86.65429688 14.6875 C-103.06112263 14.58848775 -118.9184273 16.45651054 -134.75 20.875 Z M-88 117 C-89.76522502 121.42292737 -91.52475283 125.84806793 -93.27954102 130.27514648 C-93.87441963 131.77377992 -94.47072176 133.27184925 -95.06860352 134.76928711 C-98.07989886 142.31398754 -101.00362248 149.84435766 -103.5078125 157.57421875 C-105.90445428 164.92466607 -108.78441385 172.00312407 -111.78900146 179.11959839 C-117.03277108 191.55293555 -121.97072541 204.04776407 -126.57055664 216.73510742 C-129.36747557 224.41240639 -132.39537162 231.9571637 -135.66552734 239.44506836 C-137.38769655 243.08634475 -137.38769655 243.08634475 -138 247 C-104.98366253 247.13049351 -72.00498937 246.89595524 -39 246 C-41.08889558 237.08665606 -44.31299616 228.74831437 -47.69552612 220.26971436 C-52.36431666 208.55489312 -56.88622704 196.81944144 -60.9375 184.875 C-64.93457332 173.09372366 -69.32886426 161.53021997 -74.03515625 150.015625 C-77.80007743 140.77110084 -81.25926195 131.56777099 -84.08984375 121.9921875 C-84.87534013 119.10967945 -84.87534013 119.10967945 -86 117 C-86.66 117 -87.32 117 -88 117 Z " fill="#181821" transform="translate(332,36)"/>
<path d="M0 0 C0 0.99 0 1.98 0 3 C-1.44632813 3.81404297 -1.44632813 3.81404297 -2.921875 4.64453125 C-4.19799877 5.3670425 -5.47403588 6.08970683 -6.75 6.8125 C-7.38421875 7.16892578 -8.0184375 7.52535156 -8.671875 7.89257812 C-11.31029208 9.39042949 -13.77882821 10.82370364 -16.15625 12.71875 C-18.41548277 14.28872531 -20.0258159 14.48719235 -22.75 14.6875 C-23.54921875 14.75324219 -24.3484375 14.81898438 -25.171875 14.88671875 C-25.77515625 14.92410156 -26.3784375 14.96148437 -27 15 C-28.125 9.25 -28.125 9.25 -27 7 C-27.9075 7.350625 -28.815 7.70125 -29.75 8.0625 C-33.00591313 9.00170571 -33.92749994 8.95514676 -37 8 C-9.6798419 0 -9.6798419 0 0 0 Z " fill="#121218" transform="translate(145,173)"/>
<path d="M0 0 C0 0.33 0 0.66 0 1 C-7.71906016 2.25045313 -15.42322563 2.12693075 -23.21875 2.09765625 C-24.68705192 2.09578817 -26.15535446 2.09436611 -27.62365723 2.09336853 C-31.46392578 2.08957409 -35.30415574 2.07977049 -39.14440918 2.06866455 C-43.07282998 2.05838392 -47.00125709 2.05385674 -50.9296875 2.04882812 C-58.61980915 2.03814508 -66.30989914 2.02110614 -74 2 C-74 1.67 -74 1.34 -74 1 C-49.27351118 -2.81833336 -24.84373574 -2.95381996 0 0 Z " fill="#48484A" transform="translate(283,23)"/>
<path d="M0 0 C-0.63693259 3.5922998 -1.5870672 6.87918241 -2.84765625 10.30078125 C-3.20537109 11.27724609 -3.56308594 12.25371094 -3.93164062 13.25976562 C-4.49141602 14.77086914 -4.49141602 14.77086914 -5.0625 16.3125 C-5.62807617 17.85260742 -5.62807617 17.85260742 -6.20507812 19.42382812 C-7.13346068 21.95043887 -8.06520129 24.47575761 -9 27 C-9.66 26.34 -10.32 25.68 -11 25 C-10.64747694 21.89779704 -9.98305139 18.92296085 -9.3125 15.875 C-8.9663651 12.69055891 -9.50154653 11.71594691 -11 9 C-9.8512638 5.55379139 -8.92418358 4.90830804 -6.0625 2.8125 C-5.35222656 2.28269531 -4.64195313 1.75289063 -3.91015625 1.20703125 C-2 0 -2 0 0 0 Z " fill="#0E0D12" transform="translate(108,271)"/>
<path d="M0 0 C4.10415189 -0.02898097 8.20827753 -0.0467922 12.3125 -0.0625 C13.47974609 -0.07087891 14.64699219 -0.07925781 15.84960938 -0.08789062 C17.52700195 -0.09272461 17.52700195 -0.09272461 19.23828125 -0.09765625 C20.26993408 -0.10289307 21.30158691 -0.10812988 22.36450195 -0.11352539 C25 0 25 0 28 1 C28 1.66 28 2.32 28 3 C24.87959957 4.19984601 21.75304469 5.38274177 18.625 6.5625 C17.29082031 7.07586914 17.29082031 7.07586914 15.9296875 7.59960938 C15.07890625 7.91865234 14.228125 8.23769531 13.3515625 8.56640625 C12.56604004 8.86490479 11.78051758 9.16340332 10.97119141 9.47094727 C9 10 9 10 7 9 C7 8.34 7 7.68 7 7 C7.99 6.67 8.98 6.34 10 6 C11.32 5.34 12.64 4.68 14 4 C11.03 3.67 8.06 3.34 5 3 C5 2.34 5 1.68 5 1 C3.35 1 1.7 1 0 1 C0 0.67 0 0.34 0 0 Z " fill="#535255" transform="translate(145,132)"/>
<path d="M0 0 C0.33 0 0.66 0 1 0 C1 2.64 1 5.28 1 8 C26.08 7.67 51.16 7.34 77 7 C77.33 6.01 77.66 5.02 78 4 C79.65 4.66 81.3 5.32 83 6 C83 6.99 83 7.98 83 9 C55.61 9 28.22 9 0 9 C0 6.03 0 3.06 0 0 Z " fill="#48484B" transform="translate(115,371)"/>
<path d="M0 0 C1.32 0.33 2.64 0.66 4 1 C2.68023089 3.75757257 1.21810835 6.2762868 -0.50390625 8.80078125 C-0.99318604 9.52386475 -1.48246582 10.24694824 -1.98657227 10.99194336 C-2.50662842 11.75772705 -3.02668457 12.52351074 -3.5625 13.3125 C-7.97894815 19.85881912 -12.20174683 26.47296714 -16.14477539 33.31567383 C-17.84044368 36.22631964 -19.44366075 38.77813504 -22 41 C-20.7874262 37.27566618 -19.49140021 33.62197194 -18 30 C-17.34 30 -16.68 30 -16 30 C-15.938125 29.34 -15.87625 28.68 -15.8125 28 C-14.8495896 24.44463854 -13.15131 21.9910423 -11.14453125 18.9375 C-9.80201828 16.66485006 -9.2459648 14.62362449 -9 12 C-7.68 12.33 -6.36 12.66 -5 13 C-5.061875 12.05125 -5.12375 11.1025 -5.1875 10.125 C-5.0946875 8.578125 -5.0946875 8.578125 -5 7 C-4.01 6.34 -3.02 5.68 -2 5 C-0.79549696 2.44816596 -0.79549696 2.44816596 0 0 Z " fill="#343439" transform="translate(92,250)"/>
<path d="M0 0 C-2.69674117 1.44242535 -5.19431981 2.41186923 -8.16796875 3.11328125 C-8.97113525 3.30712402 -9.77430176 3.5009668 -10.60180664 3.70068359 C-11.45508545 3.90258301 -12.30836426 4.10448242 -13.1875 4.3125 C-20.7802372 6.14410269 -28.26867931 8.17391011 -35.70581055 10.5637207 C-40.67978975 12.10673675 -40.67978975 12.10673675 -44 11 C-43.67 10.01 -43.34 9.02 -43 8 C-40.36 8.33 -37.72 8.66 -35 9 C-35 8.34 -35 7.68 -35 7 C-34.34 7 -33.68 7 -33 7 C-33 6.34 -33 5.68 -33 5 C-32.34 5 -31.68 5 -31 5 C-31 5.66 -31 6.32 -31 7 C-29.02 6.67 -27.04 6.34 -25 6 C-25 5.34 -25 4.68 -25 4 C-16.50170541 1.22099564 -8.96908052 -0.65895285 0 0 Z " fill="#3B3A3F" transform="translate(168,109)"/>
<path d="M0 0 C0.87785156 0.26425781 1.75570313 0.52851563 2.66015625 0.80078125 C5.45851898 1.89036674 6.59838089 3.08462158 8.0625 5.6875 C8.9375 7.6875 8.9375 7.6875 8.9375 9.6875 C10.2575 9.3575 11.5775 9.0275 12.9375 8.6875 C13.2675 9.6775 13.5975 10.6675 13.9375 11.6875 C5.31355874 10.62062067 -2.4252003 6.29674792 -8.0625 -0.3125 C-4.56492203 -1.47835932 -3.44681934 -1.07110292 0 0 Z " fill="#191820" transform="translate(343.0625,381.3125)"/>
<path d="M0 0 C-1.52322427 3.62593603 -3.69353539 5.90054247 -6.5 8.625 C-7.2940625 9.40101563 -8.088125 10.17703125 -8.90625 10.9765625 C-9.94265625 11.97816406 -9.94265625 11.97816406 -11 13 C-11.66 13.66 -12.32 14.32 -13 15 C-13.66 13.35 -14.32 11.7 -15 10 C-14.01 10 -13.02 10 -12 10 C-12 8.68 -12 7.36 -12 6 C-13.32 5.67 -14.64 5.34 -16 5 C-14.08717875 4.15787744 -12.16957527 3.32661136 -10.25 2.5 C-9.18265625 2.0359375 -8.1153125 1.571875 -7.015625 1.09375 C-4 0 -4 0 0 0 Z " fill="#2F2F33" transform="translate(122,220)"/>
<path d="M0 0 C2.64 0.66 5.28 1.32 8 2 C8 2.66 8 3.32 8 4 C9.32 4.33 10.64 4.66 12 5 C11.01 5 10.02 5 9 5 C9 5.66 9 6.32 9 7 C9.66 7 10.32 7 11 7 C10.34 9.31 9.68 11.62 9 14 C8.01 13.67 7.02 13.34 6 13 C6.66 13 7.32 13 8 13 C6.8553125 11.9171875 6.8553125 11.9171875 5.6875 10.8125 C2.40896448 7.38147446 0 4.85089963 0 0 Z " fill="#0E0E14" transform="translate(186,448)"/>
<path d="M0 0 C1.31560734 3.94682202 0.27392243 5.15532307 -1.4375 8.875 C-3.24813853 12.81202874 -4.32947676 15.64447799 -4 20 C-5.98 20.99 -7.96 21.98 -10 23 C-9.28613704 18.11052765 -7.43937585 13.78355348 -5.5625 9.25 C-5.24990234 8.47011719 -4.93730469 7.69023437 -4.61523438 6.88671875 C-4.31037109 6.14550781 -4.00550781 5.40429688 -3.69140625 4.640625 C-3.41498291 3.96547852 -3.13855957 3.29033203 -2.85375977 2.59472656 C-2 1 -2 1 0 0 Z " fill="#3B3A3F" transform="translate(222,139)"/>
<path d="M0 0 C0.33 1.32 0.66 2.64 1 4 C1.66 4 2.32 4 3 4 C4.34495828 11.09705662 5.24091535 17.7725395 5 25 C4.34 25.33 3.68 25.66 3 26 C2.3034274 21.85563723 1.61926196 17.70932277 0.9375 13.5625 C0.63875977 11.78649414 0.63875977 11.78649414 0.33398438 9.97460938 C0.15029297 8.84990234 -0.03339844 7.72519531 -0.22265625 6.56640625 C-0.39547119 5.52427979 -0.56828613 4.48215332 -0.74633789 3.40844727 C-0.83004639 2.61365967 -0.91375488 1.81887207 -1 1 C-0.67 0.67 -0.34 0.34 0 0 Z " fill="#4A494C" transform="translate(474,204)"/>
<path d="M0 0 C6.40015305 5.71783396 9.42369826 14.54757442 10 23 C9.34 23 8.68 23 8 23 C6.82685974 20.23174812 5.66129785 17.46071514 4.5 14.6875 C3.99919922 13.50897461 3.99919922 13.50897461 3.48828125 12.30664062 C3.01455078 11.1706543 3.01455078 11.1706543 2.53125 10.01171875 C2.23798828 9.31522217 1.94472656 8.61872559 1.64257812 7.90112305 C1 6 1 6 1 3 C0.34 3 -0.32 3 -1 3 C-0.67 2.01 -0.34 1.02 0 0 Z " fill="#4A494C" transform="translate(283,98)"/>
<path d="M0 0 C0 2.62113708 -0.31292445 4.50935112 -1 7 C-1.66 7 -2.32 7 -3 7 C-3 7.66 -3 8.32 -3 9 C-3.66 9.66 -4.32 10.32 -5 11 C-5.0825 11.66 -5.165 12.32 -5.25 13 C-5.4975 13.66 -5.745 14.32 -6 15 C-9.0625 16.25 -9.0625 16.25 -12 17 C-12 12.5 -12 12.5 -9.375 9.765625 C-8.83359375 9.19199219 -8.2921875 8.61835938 -7.734375 8.02734375 C-7.16203125 7.44082031 -6.5896875 6.85429687 -6 6.25 C-5.42765625 5.64800781 -4.8553125 5.04601562 -4.265625 4.42578125 C-2.85256854 2.94207196 -1.42741658 1.46989922 0 0 Z " fill="#414146" transform="translate(75,300)"/>
<path d="M0 0 C0 0.99 0 1.98 0 3 C-1.45264038 3.8638129 -2.9123163 4.71580454 -4.375 5.5625 C-5.18710938 6.03816406 -5.99921875 6.51382813 -6.8359375 7.00390625 C-7.55007812 7.33261719 -8.26421875 7.66132813 -9 8 C-9.66 7.67 -10.32 7.34 -11 7 C-10.67 6.01 -10.34 5.02 -10 4 C-16.435 4.495 -16.435 4.495 -23 5 C-18.96815544 2.98407772 -15.31404524 2.14709979 -10.9375 1.375 C-10.21755859 1.2409375 -9.49761719 1.106875 -8.75585938 0.96875 C-5.79508331 0.42992724 -3.0155592 0 0 0 Z " fill="#59595B" transform="translate(145,173)"/>
<path d="M0 0 C2.93434133 2.54778139 4.40853679 5.41619725 6.125 8.875 C6.64320313 9.90367187 7.16140625 10.93234375 7.6953125 11.9921875 C8.87467732 14.71108245 9.55863066 17.08265635 10 20 C9.01 20.33 8.02 20.66 7 21 C6.71125 19.88625 6.4225 18.7725 6.125 17.625 C5.30758671 13.99708908 5.30758671 13.99708908 3 12 C3 10.68 3 9.36 3 8 C2.34 8 1.68 8 1 8 C0.67 5.36 0.34 2.72 0 0 Z " fill="#454448" transform="translate(450,138)"/>
<path d="M0 0 C0.99 0 1.98 0 3 0 C3.50435694 1.9363704 4.00333874 3.87414146 4.5 5.8125 C4.7784375 6.89144531 5.056875 7.97039062 5.34375 9.08203125 C6 12 6 12 6 15 C6.66 15.33 7.32 15.66 8 16 C7.34 17.98 6.68 19.96 6 22 C3.79659808 18.20856066 2.89456757 14.09676496 1.875 9.875 C1.69324219 9.14667969 1.51148437 8.41835938 1.32421875 7.66796875 C0 2.28148496 0 2.28148496 0 0 Z " fill="#545557" transform="translate(20,298)"/>
<path d="M0 0 C3.28639138 3.28639138 4.48034649 7.66812656 6.1875 11.9375 C6.56841797 12.85724609 6.94933594 13.77699219 7.34179688 14.72460938 C7.87450195 16.05008789 7.87450195 16.05008789 8.41796875 17.40234375 C8.74563232 18.21179443 9.0732959 19.02124512 9.41088867 19.85522461 C10 22 10 22 9 25 C5.52745523 21.18020075 4.26461596 17.96813411 3 13 C2.49726563 12.05060547 2.49726563 12.05060547 1.984375 11.08203125 C0.87427709 8.73408606 0.60251137 6.82846221 0.375 4.25 C0.30023438 3.45078125 0.22546875 2.6515625 0.1484375 1.828125 C0.09945313 1.22484375 0.05046875 0.6215625 0 0 Z " fill="#3B3A40" transform="translate(295,126)"/>
<path d="M0 0 C0.66 1.32 1.32 2.64 2 4 C1.01 4.66 0.02 5.32 -1 6 C-1.96792995 7.75227327 -1.96792995 7.75227327 -2.75 9.75 C-4.89689043 14.34568733 -7.97650131 17.01628187 -12 20 C-12.66 19.67 -13.32 19.34 -14 19 C-13.40832031 18.29875 -12.81664063 17.5975 -12.20703125 16.875 C-7.68581483 11.44659007 -3.56745334 6.09919441 0 0 Z " fill="#555558" transform="translate(135,348)"/>
<path d="M0 0 C-0.70511719 0.56203125 -1.41023438 1.1240625 -2.13671875 1.703125 C-5.04324571 4.03469097 -7.93018528 6.38858553 -10.8125 8.75 C-11.78832031 9.54921875 -12.76414062 10.3484375 -13.76953125 11.171875 C-14.87361328 12.07679688 -14.87361328 12.07679688 -16 13 C-16.33 12.34 -16.66 11.68 -17 11 C-13.51785615 4.76115893 -7.78094242 -1.21577225 0 0 Z " fill="#565659" transform="translate(91,173)"/>
<path d="M0 0 C3.81552617 1.49895671 5.53745046 3.7986856 8 7 C8.66 7.33 9.32 7.66 10 8 C10 8.66 10 9.32 10 10 C10.99 10.33 11.98 10.66 13 11 C13 11.99 13 12.98 13 14 C13.66 14 14.32 14 15 14 C14.67 14.66 14.34 15.32 14 16 C8.77674023 11.53648711 3.79077028 6.9255107 -1 2 C-0.67 1.34 -0.34 0.68 0 0 Z " fill="#49484C" transform="translate(78,408)"/>
<path d="M0 0 C0.33 0 0.66 0 1 0 C3.8795515 11.28022653 2.77624492 22.50666619 2 34 C1.67 34 1.34 34 1 34 C-0.17759935 22.66560627 -0.10492107 11.3815148 0 0 Z " fill="#2A2A2D" transform="translate(451,226)"/>
<path d="M0 0 C2.13383795 0.87457302 4.25689844 1.77547579 6.375 2.6875 C7.55835938 3.18636719 8.74171875 3.68523437 9.9609375 4.19921875 C13 6 13 6 14.4140625 8.70703125 C14.60742188 9.46371094 14.80078125 10.22039062 15 11 C12.69 10.67 10.38 10.34 8 10 C7.67 10.66 7.34 11.32 7 12 C7 11.01 7 10.02 7 9 C6.98617135 6.94285168 6.98617135 6.94285168 6 5 C3.01647106 3.21620585 3.01647106 3.21620585 0 2 C0 1.34 0 0.68 0 0 Z " fill="#0D0D14" transform="translate(154,444)"/>
<path d="M0 0 C2.31 0.33 4.62 0.66 7 1 C3.66666667 3.66666667 0.33333333 6.33333333 -3 9 C-2.67 9.66 -2.34 10.32 -2 11 C-4.31 11 -6.62 11 -9 11 C-7.37660195 9.29115995 -5.70680947 7.62553283 -4 6 C-3.34 6 -2.68 6 -2 6 C-1.855625 5.38125 -1.71125 4.7625 -1.5625 4.125 C-1 2 -1 2 0 0 Z " fill="#36363A" transform="translate(130,82)"/>
<path d="M0 0 C2 1 2 1 3 3 C2.34 3 1.68 3 1 3 C0.34 4.65 -0.32 6.3 -1 8 C-1.66 8 -2.32 8 -3 8 C-3.33 7.01 -3.66 6.02 -4 5 C-7.3 7.31 -10.6 9.62 -14 12 C-14.66 11.67 -15.32 11.34 -16 11 C-13.89605554 9.54134521 -11.7918536 8.08306434 -9.6875 6.625 C-8.79514648 6.00625 -8.79514648 6.00625 -7.88476562 5.375 C-5.26916598 3.56307623 -2.64757418 1.76504945 0 0 Z " fill="#636367" transform="translate(372,414)"/>
<path d="M0 0 C-4.24095382 4.47019457 -7.02876881 5.87030761 -13 7 C-13.33 6.34 -13.66 5.68 -14 5 C-9.51375548 0.03308643 -6.54383065 -0.14872342 0 0 Z " fill="#121217" transform="translate(161,135)"/>
<path d="M0 0 C9 10.66666667 9 10.66666667 9 15 C6.08482708 13.92598892 4.22189824 13.22189824 2 11 C1.62243192 9.67851173 1.2981424 8.34164079 1 7 C0.34490497 4.99617991 -0.31974363 2.99541868 -1 1 C-0.67 0.67 -0.34 0.34 0 0 Z " fill="#4C4C50" transform="translate(95,385)"/>
<path d="M0 0 C0.66 0 1.32 0 2 0 C2 0.66 2 1.32 2 2 C2.9075 1.649375 3.815 1.29875 4.75 0.9375 C8.00591313 -0.00170571 8.92749994 0.04485324 12 1 C8.73348625 2.03502777 5.46122637 3.05053935 2.1875 4.0625 C1.25873047 4.35705078 0.32996094 4.65160156 -0.62695312 4.95507812 C-1.51962891 5.22900391 -2.41230469 5.50292969 -3.33203125 5.78515625 C-4.15421143 6.04176025 -4.9763916 6.29836426 -5.82348633 6.56274414 C-8 7 -8 7 -11 6 C-10.67 5.01 -10.34 4.02 -10 3 C-7.36 3.33 -4.72 3.66 -2 4 C-2 3.34 -2 2.68 -2 2 C-1.34 2 -0.68 2 0 2 C0 1.34 0 0.68 0 0 Z " fill="#757478" transform="translate(135,114)"/>
<path d="M0 0 C0.33 0 0.66 0 1 0 C1 1.98 1 3.96 1 6 C0.01 6.495 0.01 6.495 -1 7 C-1.65555119 9.52733235 -1.65555119 9.52733235 -2 12 C-2.66 12 -3.32 12 -4 12 C-4.33 12.99 -4.66 13.98 -5 15 C-5 14.34 -5 13.68 -5 13 C-5.99 12.67 -6.98 12.34 -8 12 C-6.69161864 9.997193 -5.37857806 7.99773901 -4.0625 6 C-3.50272461 5.14148438 -3.50272461 5.14148438 -2.93164062 4.265625 C-1.98055411 2.82614271 -0.99305724 1.41085511 0 0 Z " fill="#202124" transform="translate(62,113)"/>
<path d="M0 0 C6.20970773 -0.33266291 10.28264895 0.54970669 16 3 C15.67 4.65 15.34 6.3 15 8 C12.625 7.75 12.625 7.75 10 7 C9.71125 6.34 9.4225 5.68 9.125 5 C8.75375 4.34 8.3825 3.68 8 3 C5.67843403 2.59270772 3.3431213 2.25561323 1 2 C0.67 1.34 0.34 0.68 0 0 Z " fill="#0D0C13" transform="translate(275,24)"/>
<path d="M0 0 C-0.99 1.485 -0.99 1.485 -2 3 C-4.33837891 3.34057617 -4.33837891 3.34057617 -7.2265625 3.29296875 C-8.2578125 3.28330078 -9.2890625 3.27363281 -10.3515625 3.26367188 C-11.43179688 3.23853516 -12.51203125 3.21339844 -13.625 3.1875 C-14.71296875 3.17396484 -15.8009375 3.16042969 -16.921875 3.14648438 C-19.61507409 3.11104754 -22.30729374 3.06164331 -25 3 C-25 2.67 -25 2.34 -25 2 C-16.6030674 0.62707087 -8.51372785 -0.31274919 0 0 Z " fill="#828285" transform="translate(234,22)"/>
<path d="M0 0 C0.33 0 0.66 0 1 0 C0.58411954 6.19518473 -0.60251894 11.26689311 -3 17 C-5.17944188 13.73083718 -5.23305854 13.13719614 -4.8125 9.4375 C-4.73644531 8.65246094 -4.66039062 7.86742187 -4.58203125 7.05859375 C-4 5 -4 5 -1 3 C-0.67 2.01 -0.34 1.02 0 0 Z " fill="#454548" transform="translate(208,240)"/>
<path d="M0 0 C0.33 0.66 0.66 1.32 1 2 C-1.57967797 2.86689178 -4.16276127 3.71873789 -6.75 4.5625 C-7.47960937 4.80935547 -8.20921875 5.05621094 -8.9609375 5.31054688 C-9.66992188 5.53935547 -10.37890625 5.76816406 -11.109375 6.00390625 C-11.75874023 6.21861572 -12.40810547 6.4333252 -13.07714844 6.65454102 C-15.33444538 7.06008636 -16.83473482 6.69296911 -19 6 C-18.45730469 5.80664062 -17.91460937 5.61328125 -17.35546875 5.4140625 C-16.64003906 5.15367187 -15.92460937 4.89328125 -15.1875 4.625 C-14.47980469 4.36976563 -13.77210938 4.11453125 -13.04296875 3.8515625 C-10.75226641 2.9734231 -10.75226641 2.9734231 -8 1 C-5.07175348 0.02391783 -3.04386724 -0.08226668 0 0 Z " fill="#777679" transform="translate(322,471)"/>
<path d="M0 0 C0.99 0 1.98 0 3 0 C2.34309381 3.78239671 1.279869 7.21841526 -0.0625 10.8125 C-0.42472656 11.78832031 -0.78695312 12.76414062 -1.16015625 13.76953125 C-1.43730469 14.50558594 -1.71445313 15.24164063 -2 16 C-2.66 15.34 -3.32 14.68 -4 14 C-3.64177439 8.98484141 -1.83557909 4.62885161 0 0 Z " fill="#5E5D62" transform="translate(101,282)"/>
<path d="M0 0 C0.66 0 1.32 0 2 0 C0.36047417 4.6393176 -2.06871052 8.63855858 -4.625 12.8125 C-5.04523438 13.50537109 -5.46546875 14.19824219 -5.8984375 14.91210938 C-6.9289467 16.61010748 -7.96401681 18.30533614 -9 20 C-9.33 19.34 -9.66 18.68 -10 18 C-9.22265625 15.8359375 -9.22265625 15.8359375 -8.0625 13.375 C-7.49208984 12.14910156 -7.49208984 12.14910156 -6.91015625 10.8984375 C-6.60980469 10.27195312 -6.30945313 9.64546875 -6 9 C-5.34 9 -4.68 9 -4 9 C-3.896875 8.2575 -3.79375 7.515 -3.6875 6.75 C-2.95066203 3.8026481 -2.05200858 2.21616926 0 0 Z " fill="#6F6F73" transform="translate(80,271)"/>
<path d="M0 0 C0.33 0.99 0.66 1.98 1 3 C1.99 3 2.98 3 4 3 C3.34 5.64 2.68 8.28 2 11 C1.34 11 0.68 11 0 11 C-1.75 8.75 -1.75 8.75 -3 6 C-2.25 3.8125 -2.25 3.8125 -1 2 C-0.67 1.34 -0.34 0.68 0 0 Z " fill="#101017" transform="translate(92,298)"/>
<path d="M0 0 C3 2 3 2 4 5 C3.34 5 2.68 5 2 5 C2 5.99 2 6.98 2 8 C-1.37503669 6.8141763 -3.64722731 5.72426311 -6 3 C-4.02 2.01 -2.04 1.02 0 0 Z " fill="#27262D" transform="translate(123,440)"/>
<path d="M0 0 C2.625 0.375 2.625 0.375 5 1 C2.23145402 3.14909962 -0.57834526 5.01778828 -3.625 6.75 C-4.40101563 7.19859375 -5.17703125 7.6471875 -5.9765625 8.109375 C-6.64429688 8.40328125 -7.31203125 8.6971875 -8 9 C-8.66 8.67 -9.32 8.34 -10 8 C-10 7.34 -10 6.68 -10 6 C-9.44570313 5.73445313 -8.89140625 5.46890625 -8.3203125 5.1953125 C-7.59585937 4.84210938 -6.87140625 4.48890625 -6.125 4.125 C-5.40570313 3.77695312 -4.68640625 3.42890625 -3.9453125 3.0703125 C-1.84864981 2.03442457 -1.84864981 2.03442457 0 0 Z " fill="#717074" transform="translate(364,450)"/>
<path d="M0 0 C2.64 0.66 5.28 1.32 8 2 C7.01 2.99 6.02 3.98 5 5 C5.66 6.32 6.32 7.64 7 9 C6.01 9 5.02 9 4 9 C0 3.85714286 0 3.85714286 0 0 Z " fill="#525153" transform="translate(186,448)"/>
<path d="M0 0 C-0.60990891 3.55780196 -1.5783681 6.6828589 -3 10 C-3.66 8.68 -4.32 7.36 -5 6 C-6.65 6.33 -8.3 6.66 -10 7 C-3.18421053 0 -3.18421053 0 0 0 Z " fill="#4D4D4D" transform="translate(108,271)"/>
<path d="M0 0 C0.33 0.99 0.66 1.98 1 3 C-2.49359465 6.59634744 -6.11098131 9.83451967 -10 13 C-9.01 10.03 -8.02 7.06 -7 4 C-5.824375 3.8453125 -5.824375 3.8453125 -4.625 3.6875 C-1.66954819 3.22404978 -1.66954819 3.22404978 0 0 Z " fill="#545459" transform="translate(83,217)"/>
<path d="M0 0 C0.639375 0.66 1.27875 1.32 1.9375 2 C5.7829235 5.85653744 9.90924419 9.40833422 14 13 C9.83726967 13 7.38185398 11.22831465 4.3125 8.5 C1.94919061 5.79907498 0.71752661 3.4680453 0 0 Z " fill="#5C5C61" transform="translate(109,406)"/>
<path d="M0 0 C4.62609198 -0.3227506 7.28026121 0.15549386 11 3 C11 3.66 11 4.32 11 5 C12.32 4.67 13.64 4.34 15 4 C15.33 4.99 15.66 5.98 16 7 C9.97229862 6.52412884 5.23321711 3.80277043 0 1 C0 0.67 0 0.34 0 0 Z " fill="#5B5B5E" transform="translate(341,386)"/>
<path d="M0 0 C1.72274487 2.58411731 2.68895522 4.54902656 3.6875 7.4375 C3.95949219 8.19933594 4.23148437 8.96117187 4.51171875 9.74609375 C5.04729142 12.21829721 4.80445309 13.62983284 4 16 C3.34 15.67 2.68 15.34 2 15 C2 13.35 2 11.7 2 10 C0.68 9.67 -0.64 9.34 -2 9 C-1.505 7.88625 -1.505 7.88625 -1 6.75 C0.22782871 3.86116688 0.22782871 3.86116688 0 0 Z " fill="#4D4D51" transform="translate(466,172)"/>
<path d="M0 0 C1.72945653 0.14235457 3.45855654 0.28904382 5.1875 0.4375 C6.63189453 0.55931641 6.63189453 0.55931641 8.10546875 0.68359375 C10.78649602 0.97666151 13.3662986 1.42703754 16 2 C15.01 2.99 14.02 3.98 13 5 C11.20620902 4.55005243 9.41501072 4.08975857 7.625 3.625 C6.62726563 3.36976562 5.62953125 3.11453125 4.6015625 2.8515625 C2 2 2 2 0 0 Z " fill="#57575A" transform="translate(283,24)"/>
<path d="M0 0 C6.7685324 -0.10152799 13.30324864 -0.03026944 20 1 C20 1.33 20 1.66 20 2 C15.72844385 2.62131726 11.50381512 3.10848147 7.1875 3.25 C6.09501953 3.28867187 6.09501953 3.28867187 4.98046875 3.328125 C2.46768937 2.91180652 1.60233463 1.92077968 0 0 Z " fill="#7F7F82" transform="translate(263,22)"/>
<path d="M0 0 C2.97 0.495 2.97 0.495 6 1 C7 5 8 9 9 13 C6.31765765 10.57542028 4.63143275 7.92489603 2.8125 4.8125 C2.28269531 3.91144531 1.75289063 3.01039063 1.20703125 2.08203125 C0.80871094 1.39496094 0.41039062 0.70789063 0 0 Z " fill="#444448" transform="translate(410,129)"/>
<path d="M0 0 C1.32 0 2.64 0 4 0 C4.66 2.31 5.32 4.62 6 7 C4.68 7.33 3.36 7.66 2 8 C1.67 7.34 1.34 6.68 1 6 C0.01 6.495 0.01 6.495 -1 7 C-1 6.01 -1 5.02 -1 4 C-0.34 4 0.32 4 1 4 C0.67 2.68 0.34 1.36 0 0 Z " fill="#23242A" transform="translate(232,96)"/>
<path d="M0 0 C5.35456086 0.39663414 9.18174795 1.18174795 13 5 C7.76119922 4.44854729 3.02649303 3.57077907 -2 2 C-1.34 1.34 -0.68 0.68 0 0 Z " fill="#626265" transform="translate(183,473)"/>
<path d="M0 0 C5.27388024 -0.50227431 7.91015695 0.67105798 12 4 C12.33 4.99 12.66 5.98 13 7 C8.1725201 5.58707905 4.2837641 3.57025846 0 1 C0 0.67 0 0.34 0 0 Z " fill="#646467" transform="translate(131,452)"/>
<path d="M0 0 C3.3 0 6.6 0 10 0 C4.16216216 4.37837838 4.16216216 4.37837838 1 6 C0.01 5.67 -0.98 5.34 -2 5 C-1.34 3.35 -0.68 1.7 0 0 Z " fill="#414146" transform="translate(91,130)"/>
<path d="M0 0 C2.475 0.99 2.475 0.99 5 2 C5 2.99 5 3.98 5 5 C0.38 5 -4.24 5 -9 5 C-9 4.67 -9 4.34 -9 4 C-6.36 3.67 -3.72 3.34 -1 3 C-0.67 2.01 -0.34 1.02 0 0 Z " fill="#515152" transform="translate(193,375)"/>
<path d="M0 0 C2.14898232 0.7830784 4.29412095 1.57671243 6.4375 2.375 C7.63246094 2.81585938 8.82742187 3.25671875 10.05859375 3.7109375 C13 5 13 5 14 7 C10.7 7 7.4 7 4 7 C4 6.01 4 5.02 4 4 C2.68 3.67 1.36 3.34 0 3 C0 2.01 0 1.02 0 0 Z " fill="#313136" transform="translate(178,368)"/>
<path d="M0 0 C0.33 0 0.66 0 1 0 C0.88544319 1.91731918 0.75793742 3.8338675 0.625 5.75 C0.55539062 6.81734375 0.48578125 7.8846875 0.4140625 8.984375 C0.0271777 11.80206432 -0.55686166 13.5830366 -2 16 C-4.20779221 9.74458874 -4.20779221 9.74458874 -3.25 6.3125 C-2.8375 5.549375 -2.425 4.78625 -2 4 C-1.62875 3.236875 -1.2575 2.47375 -0.875 1.6875 C-0.58625 1.130625 -0.2975 0.57375 0 0 Z " fill="#78787C" transform="translate(477,287)"/>
<path d="M0 0 C0.66 0 1.32 0 2 0 C2.20496094 0.75925781 2.40992188 1.51851562 2.62109375 2.30078125 C2.89050781 3.29464844 3.15992188 4.28851563 3.4375 5.3125 C3.83775391 6.79169922 3.83775391 6.79169922 4.24609375 8.30078125 C4.78079425 10.21517526 5.37144538 12.11433615 6 14 C5.67 14.66 5.34 15.32 5 16 C4.34 16 3.68 16 3 16 C2.49595192 13.89679937 1.99689492 11.79240209 1.5 9.6875 C1.08234375 7.92986328 1.08234375 7.92986328 0.65625 6.13671875 C0 3 0 3 0 0 Z " fill="#09090E" transform="translate(445,197)"/>
<path d="M0 0 C4.69056641 0.5863208 9.08968731 2.35048907 13 5 C13.33 5.99 13.66 6.98 14 8 C11.36 8 8.72 8 6 8 C6.99 7.01 7.98 6.02 9 5 C4.545 3.02 4.545 3.02 0 1 C0 0.67 0 0.34 0 0 Z " fill="#777779" transform="translate(198,96)"/>
<path d="M0 0 C0 4.17561407 -1.83352478 5.53957787 -4.5 8.6875 C-5.3353125 9.68136719 -6.170625 10.67523438 -7.03125 11.69921875 C-8.00578125 12.83810547 -8.00578125 12.83810547 -9 14 C-9.6015625 12.12109375 -9.6015625 12.12109375 -10 10 C-8.375 8.0625 -8.375 8.0625 -6 6 C-5.113125 5.113125 -4.22625 4.22625 -3.3125 3.3125 C-2.20833333 2.20833333 -1.10416667 1.10416667 0 0 Z " fill="#797A7C" transform="translate(437,387)"/>
<path d="M0 0 C3.45354356 1.15118119 4.05140647 2.0563512 6.125 4.9375 C6.64320313 5.64777344 7.16140625 6.35804688 7.6953125 7.08984375 C9 9 9 9 10 11 C6.54457281 9.46425458 3.75129011 7.60257173 1 5 C0.1875 2.25 0.1875 2.25 0 0 Z " fill="#636366" transform="translate(384,355)"/>
<path d="M0 0 C0.66 0.66 1.32 1.32 2 2 C4.10820797 1.6814823 4.10820797 1.6814823 6 1 C6.33 1.66 6.66 2.32 7 3 C4.66785852 4.20628008 2.50357861 5.1654738 0 6 C-0.3721042 7.32303717 -0.70630173 8.65737935 -1 10 C-1.99 10.495 -1.99 10.495 -3 11 C-2.44894091 7.0507432 -1.61064629 3.65079826 0 0 Z " fill="#5F5F64" transform="translate(441,315)"/>
<path d="M0 0 C2.475 0.99 2.475 0.99 5 2 C4.67 2.66 4.34 3.32 4 4 C0.71480525 5.09506492 -1.73663415 5.09960608 -5.1875 5.0625 C-6.81751953 5.04896484 -6.81751953 5.04896484 -8.48046875 5.03515625 C-9.31191406 5.02355469 -10.14335937 5.01195313 -11 5 C-11 4.67 -11 4.34 -11 4 C-5.06 3.505 -5.06 3.505 1 3 C0.67 2.01 0.34 1.02 0 0 Z " fill="#05050B" transform="translate(203,99)"/>
<path d="M0 0 C0.66 0.33 1.32 0.66 2 1 C2 1.99 2 2.98 2 4 C0.68 3.67 -0.64 3.34 -2 3 C-2.33 3.99 -2.66 4.98 -3 6 C-3.66 6 -4.32 6 -5 6 C-5 6.66 -5 7.32 -5 8 C-6.65 8 -8.3 8 -10 8 C-6.97727468 4.74475735 -3.74281699 2.38179263 0 0 Z " fill="#414045" transform="translate(76,242)"/>
<path d="M0 0 C1.11375 0.1546875 1.11375 0.1546875 2.25 0.3125 C-0.62494471 4.29319267 -3.57117329 6.74821997 -7.75 9.3125 C-7.06213852 4.66943499 -4.92005947 0.55909767 0 0 Z " fill="#343339" transform="translate(91.75,209.6875)"/>
<path d="M0 0 C1.39195915 4.17587745 -0.17676781 6.13474776 -2 10 C-5 6.375 -5 6.375 -5 3 C-5.66 2.34 -6.32 1.68 -7 1 C-4.69 1.33 -2.38 1.66 0 2 C0 1.34 0 0.68 0 0 Z " fill="#4A4A4F" transform="translate(224,203)"/>
<path d="M0 0 C0.66 0.33 1.32 0.66 2 1 C1.01 2.32 0.02 3.64 -1 5 C-0.34 5 0.32 5 1 5 C1 5.66 1 6.32 1 7 C-0.65 7.33 -2.3 7.66 -4 8 C-4.33 7.34 -4.66 6.68 -5 6 C-4.67 5.34 -4.34 4.68 -4 4 C-4.66 3.67 -5.32 3.34 -6 3 C-4.03533587 1.93224776 -2.03144641 0.93446535 0 0 Z " fill="#424146" transform="translate(140,47)"/>
<path d="M0 0 C6.68993219 0.53951066 12.63460728 1.88706171 19 4 C19 4.33 19 4.66 19 5 C17.54207116 5.05399736 16.08357288 5.09279177 14.625 5.125 C13.81289063 5.14820313 13.00078125 5.17140625 12.1640625 5.1953125 C10 5 10 5 8 3 C6.03309626 2.32707499 6.03309626 2.32707499 3.875 1.875 C2.59625 1.58625 1.3175 1.2975 0 1 C0 0.67 0 0.34 0 0 Z " fill="#6F6F71" transform="translate(299,27)"/>
<path d="M0 0 C0.99 0 1.98 0 3 0 C4.77706209 2.66559313 5.87548273 5.0280615 7 8 C6.01 8.33 5.02 8.66 4 9 C0 2.25 0 2.25 0 0 Z " fill="#101017" transform="translate(106,406)"/>
<path d="M0 0 C3.3 0.33 6.6 0.66 10 1 C10 1.66 10 2.32 10 3 C5.71 3 1.42 3 -3 3 C-2.01 2.67 -1.02 2.34 0 2 C0 1.34 0 0.68 0 0 Z " fill="#13121A" transform="translate(183,374)"/>
<path d="M0 0 C2.64 0.99 5.28 1.98 8 3 C8 3.33 8 3.66 8 4 C6.35 4 4.7 4 3 4 C2.67 4.99 2.34 5.98 2 7 C-0.475 6.01 -0.475 6.01 -3 5 C-2 3 -2 3 0 2 C0 1.34 0 0.68 0 0 Z " fill="#202126" transform="translate(396,368)"/>
<path d="M0 0 C3.36338044 3.36338044 4 6.28835716 4 11 C3.34 11 2.68 11 2 11 C0.68 7.7 -0.64 4.4 -2 1 C-1.34 0.67 -0.68 0.34 0 0 Z " fill="#4F4F52" transform="translate(350,268)"/>
<path d="M0 0 C2.5 1.3125 2.5 1.3125 5 3 C5 3.99 5 4.98 5 6 C4.34 6 3.68 6 3 6 C2.67 6.66 2.34 7.32 2 8 C0.4375 6.25 0.4375 6.25 -1 4 C-0.6875 1.75 -0.6875 1.75 0 0 Z " fill="#0D0D13" transform="translate(419,136)"/>
<path d="M0 0 C0.66 0.33 1.32 0.66 2 1 C-0.50357733 6.00715466 -1.750618 7.54284247 -7 10 C-5.33248852 6.05860922 -2.77289351 3.2107188 0 0 Z " fill="#707073" transform="translate(70,103)"/>
<path d="M0 0 C3.7602985 0.58107632 6.53035032 1.65199496 9.8125 3.5625 C10.60269531 4.01753906 11.39289063 4.47257812 12.20703125 4.94140625 C12.79871094 5.29074219 13.39039063 5.64007813 14 6 C10.25373781 7.11353866 8.52456128 6.80746732 5 5 C3.3125 3.5 3.3125 3.5 2 2 C1.34 1.34 0.68 0.68 0 0 Z " fill="#757577" transform="translate(345,42)"/>
<path d="M0 0 C0.66 0.33 1.32 0.66 2 1 C1.375 2.875 1.375 2.875 0 5 C-3.63343017 6.62344752 -5.17211056 7.27596315 -9 6 C-6.03 4.02 -3.06 2.04 0 0 Z " fill="#434346" transform="translate(354,426)"/>
<path d="M0 0 C2.70438996 0.36405249 3.74406383 0.68142682 5.484375 2.84765625 C5.90203125 3.57855469 6.3196875 4.30945313 6.75 5.0625 C7.39195313 6.16271484 7.39195313 6.16271484 8.046875 7.28515625 C8.36140625 7.85105469 8.6759375 8.41695313 9 9 C5.07699728 7.17495091 2.26212728 4.81729174 -1 2 C-0.67 1.34 -0.34 0.68 0 0 Z " fill="#5D5D62" transform="translate(98,427)"/>
<path d="M0 0 C3 1 3 1 4.25 3.1875 C5.12860506 6.48226898 4.76557916 8.70800962 4 12 C2.09681116 9.14521674 1.5380901 7.58058692 0.875 4.3125 C0.70742188 3.50425781 0.53984375 2.69601563 0.3671875 1.86328125 C0.24601562 1.24839844 0.12484375 0.63351563 0 0 Z " fill="#636368" transform="translate(438,179)"/>
<path d="M0 0 C-2.3024119 2.60045875 -4.49896677 3.84739183 -7.6875 5.1875 C-8.49574219 5.53167969 -9.30398437 5.87585938 -10.13671875 6.23046875 C-10.75160156 6.48441406 -11.36648437 6.73835937 -12 7 C-12 6.01 -12 5.02 -12 4 C-10.68 4 -9.36 4 -8 4 C-8 3.34 -8 2.68 -8 2 C-3.61016949 -1.20338983 -3.61016949 -1.20338983 0 0 Z " fill="#47464A" transform="translate(106,164)"/>
<path d="M0 0 C0.99 0.33 1.98 0.66 3 1 C3 1.66 3 2.32 3 3 C2.01 3.66 1.02 4.32 0 5 C-1.35251497 6.31387169 -2.68945377 7.64426252 -4 9 C-4.99 8.67 -5.98 8.34 -7 8 C-6.5875 7.608125 -6.175 7.21625 -5.75 6.8125 C-3.67115087 4.65940626 -1.84531043 2.35436159 0 0 Z " fill="#0E0E14" transform="translate(395,394)"/>
<path d="M0 0 C0.99 0.33 1.98 0.66 3 1 C1.90259375 2.62957312 0.79681808 4.25351228 -0.3125 5.875 C-0.92738281 6.77992188 -1.54226562 7.68484375 -2.17578125 8.6171875 C-4 11 -4 11 -7 13 C-5.54331217 10.03216871 -3.98767914 7.13584687 -2.375 4.25 C-1.92898437 3.45078125 -1.48296875 2.6515625 -1.0234375 1.828125 C-0.68570313 1.22484375 -0.34796875 0.6215625 0 0 Z " fill="#7A7A7D" transform="translate(105,236)"/>
<path d="M0 0 C0.66 0.33 1.32 0.66 2 1 C0.93204565 5.50066475 -0.14038586 9.7494534 -2 14 C-3 11 -3 11 -2 8 C-2.66 7.67 -3.32 7.34 -4 7 C-3.34 7 -2.68 7 -2 7 C-2 6.34 -2 5.68 -2 5 C-1.34 5 -0.68 5 0 5 C-0.33 4.01 -0.66 3.02 -1 2 C-0.67 1.34 -0.34 0.68 0 0 Z " fill="#7E7D81" transform="translate(228,189)"/>
<path d="M0 0 C2.3129482 2.3129482 2.49580975 3.47904875 3.125 6.625 C3.29257812 7.44226563 3.46015625 8.25953125 3.6328125 9.1015625 C3.81457031 10.04128906 3.81457031 10.04128906 4 11 C3.01 10.67 2.02 10.34 1 10 C-1.28070175 3.84210526 -1.28070175 3.84210526 0 0 Z " fill="#5D5C60" transform="translate(309,161)"/>
<path d="M0 0 C2.16321167 3.24481751 3.6314591 6.35055759 5 10 C4.67 10.99 4.34 11.98 4 13 C1.11007004 9.73717585 -0.65209488 7.40679813 -1 3 C-0.67 2.01 -0.34 1.02 0 0 Z " fill="#4F4F52" transform="translate(300,138)"/>
<path d="M0 0 C1.98 0.495 1.98 0.495 4 1 C3.34 3.31 2.68 5.62 2 8 C1.01 7.67 0.02 7.34 -1 7 C-0.67 4.69 -0.34 2.38 0 0 Z " fill="#101017" transform="translate(315,332)"/>
<path d="M0 0 C2 2 2 2 2.875 4.0625 C3.83647371 6.20051917 3.83647371 6.20051917 6.125 6.75 C6.74375 6.8325 7.3625 6.915 8 7 C7.01 7.495 7.01 7.495 6 8 C5.34444881 10.52733235 5.34444881 10.52733235 5 13 C2.94876752 10.94876752 2.35852882 9.72994937 1.375 7.0625 C0.98441406 6.02802734 0.98441406 6.02802734 0.5859375 4.97265625 C0 3 0 3 0 0 Z " fill="#3B3B3F" transform="translate(285,258)"/>
<path d="M0 0 C2.23495428 2.23495428 3.0024791 4.02414536 4.1875 6.9375 C4.55230469 7.81277344 4.91710937 8.68804687 5.29296875 9.58984375 C6 12 6 12 5 15 C4.67 13.68 4.34 12.36 4 11 C3.34 11 2.68 11 2 11 C0 3.375 0 3.375 0 0 Z " fill="#7D7C7F" transform="translate(343,250)"/>
<path d="M0 0 C-1.36983503 3.16115776 -1.9890638 3.9927092 -5 6 C-5 5.01 -5 4.02 -5 3 C-5.99 3 -6.98 3 -8 3 C-8.33 3.66 -8.66 4.32 -9 5 C-9.66 4.34 -10.32 3.68 -11 3 C-4.5 0 -4.5 0 0 0 Z " fill="#828281" transform="translate(122,220)"/>
<path d="M0 0 C2.04379831 4.08759663 2.18594005 4.98685565 1.625 9.25 C1.51414062 10.14203125 1.40328125 11.0340625 1.2890625 11.953125 C1.19367187 12.62859375 1.09828125 13.3040625 1 14 C0.34 14 -0.32 14 -1 14 C-0.67 9.38 -0.34 4.76 0 0 Z " fill="#434346" transform="translate(21,199)"/>
<path d="M0 0 C-0.99 0 -1.98 0 -3 0 C-3 0.66 -3 1.32 -3 2 C-2.34 2.33 -1.68 2.66 -1 3 C-1.99 3.66 -2.98 4.32 -4 5 C-4.33 4.34 -4.66 3.68 -5 3 C-4.67 2.34 -4.34 1.68 -4 1 C-4.9075 1.350625 -5.815 1.70125 -6.75 2.0625 C-10.00591313 3.00170571 -10.92749994 2.95514676 -14 2 C-12.42085985 1.46658816 -10.83645613 0.94874237 -9.25 0.4375 C-8.36828125 0.14746094 -7.4865625 -0.14257812 -6.578125 -0.44140625 C-3.92165684 -1.01697435 -2.52968894 -0.89248371 0 0 Z " fill="#4B4A50" transform="translate(122,179)"/>
<path d="M0 0 C1.32830615 3.98491845 0.23204404 5.40048548 -1.4375 9.1875 C-1.91058594 10.27417969 -2.38367188 11.36085937 -2.87109375 12.48046875 C-3.42990234 13.72763672 -3.42990234 13.72763672 -4 15 C-5.24153433 11.275397 -4.47452539 10.52247731 -3 7 C-2.835 5.9275 -2.67 4.855 -2.5 3.75 C-2.335 2.8425 -2.17 1.935 -2 1 C-1.34 0.67 -0.68 0.34 0 0 Z " fill="#7C7B7D" transform="translate(243,153)"/>
<path d="M0 0 C2.475 0.495 2.475 0.495 5 1 C5 1.66 5 2.32 5 3 C7.475 3.99 7.475 3.99 10 5 C6.86650268 6.04449911 6.01031744 5.93423645 3 5 C3 4.34 3 3.68 3 3 C2.01 2.67 1.02 2.34 0 2 C0 1.34 0 0.68 0 0 Z M1 5 C3 6 3 6 3 6 Z " fill="#0D0E14" transform="translate(381,65)"/>
<path d="M0 0 C0 0.99 0 1.98 0 3 C-0.66 3 -1.32 3 -2 3 C-2 3.66 -2 4.32 -2 5 C-3.98 5 -5.96 5 -8 5 C-7.67 4.01 -7.34 3.02 -7 2 C-4.56723614 0.81480735 -2.71982714 0 0 0 Z " fill="#111117" transform="translate(350,457)"/>
<path d="M0 0 C0.99 0.99 1.98 1.98 3 3 C-1.75 6 -1.75 6 -4 6 C-4 4.35 -4 2.7 -4 1 C-3.01 1.33 -2.02 1.66 -1 2 C-0.67 1.34 -0.34 0.68 0 0 Z " fill="#121219" transform="translate(360,449)"/>
<path d="M0 0 C0.99 0.33 1.98 0.66 3 1 C3.185625 2.2065625 3.185625 2.2065625 3.375 3.4375 C4.11554163 7.65858729 5.04401126 11.82335017 6 16 C3.63224279 13.63224279 3.00103504 11.70288662 1.875 8.5625 C1.52179688 7.59441406 1.16859375 6.62632812 0.8046875 5.62890625 C0 3 0 3 0 0 Z " fill="#A6A5A8" transform="translate(314,339)"/>
<path d="M0 0 C-3.465 2.97 -3.465 2.97 -7 6 C-7 4.35 -7 2.7 -7 1 C-3.375 -1.125 -3.375 -1.125 0 0 Z " fill="#403F45" transform="translate(412,418)"/>
<path d="M0 0 C3.0916909 2.52956528 3.90931332 5.22454612 5 9 C3.68 8.67 2.36 8.34 1 8 C0.67 5.36 0.34 2.72 0 0 Z " fill="#515054" transform="translate(450,138)"/>
<path d="M0 0 C0.66 0.33 1.32 0.66 2 1 C2 1.66 2 2.32 2 3 C-1.3125 4.625 -1.3125 4.625 -5 6 C-5.99 5.34 -6.98 4.68 -8 4 C-6.71349294 3.30289269 -5.42059335 2.61757124 -4.125 1.9375 C-3.40570313 1.55464844 -2.68640625 1.17179687 -1.9453125 0.77734375 C-1.30335938 0.52082031 -0.66140625 0.26429687 0 0 Z " fill="#5C5D60" transform="translate(150,42)"/>
<path d="M0 0 C1.32 0 2.64 0 4 0 C3.01 2.97 2.02 5.94 1 9 C-1.08954032 4.82091936 -1.16552619 4.19589427 0 0 Z " fill="#38373C" transform="translate(193,274)"/>
<path d="M0 0 C1.98 0 3.96 0 6 0 C6 3 6 3 4 6 C3.34 6 2.68 6 2 6 C1.855625 5.38125 1.71125 4.7625 1.5625 4.125 C1.06847775 1.96741678 1.06847775 1.96741678 0 0 Z " fill="#525257" transform="translate(49,202)"/>
<path d="M0 0 C-2.31 1.65 -4.62 3.3 -7 5 C-7.66 4.67 -8.32 4.34 -9 4 C-9 3.34 -9 2.68 -9 2 C-5.33876089 -0.74592933 -4.63002084 -1.15750521 0 0 Z " fill="#656569" transform="translate(134,182)"/>
<path d="M0 0 C0.66 0.33 1.32 0.66 2 1 C1.01 3.31 0.02 5.62 -1 8 C-2.65 8 -4.3 8 -6 8 C-4.02 5.36 -2.04 2.72 0 0 Z " fill="#5D5B60" transform="translate(85,86)"/>
<path d="M0 0 C1.16945792 0.80847729 2.33550461 1.62189112 3.5 2.4375 C4.47453125 3.11619141 4.47453125 3.11619141 5.46875 3.80859375 C5.9740625 4.20175781 6.479375 4.59492187 7 5 C7 5.33 7 5.66 7 6 C5.35 6 3.7 6 2 6 C2 5.34 2 4.68 2 4 C1.01 3.67 0.02 3.34 -1 3 C-0.67 2.01 -0.34 1.02 0 0 Z " fill="#3F3E43" transform="translate(403,80)"/>
<path d="M0 0 C0.33 0.99 0.66 1.98 1 3 C-0.9375 5.6875 -0.9375 5.6875 -3 8 C-3.66 7.67 -4.32 7.34 -5 7 C-4.34 6.01 -3.68 5.02 -3 4 C-3.99 4.33 -4.98 4.66 -6 5 C-6.33 4.34 -6.66 3.68 -7 3 C-5.5459375 2.5359375 -5.5459375 2.5359375 -4.0625 2.0625 C-1.15934208 1.30476658 -1.15934208 1.30476658 0 0 Z " fill="#56565A" transform="translate(418,408)"/>
<path d="M0 0 C0.33 0 0.66 0 1 0 C1.66 2.31 2.32 4.62 3 7 C2.34 7 1.68 7 1 7 C0.67 8.32 0.34 9.64 0 11 C-0.66 10.67 -1.32 10.34 -2 10 C-1.34 6.7 -0.68 3.4 0 0 Z " fill="#5B5B60" transform="translate(444,305)"/>
<path d="M0 0 C-3.26992478 1.88649506 -6.23672696 2.67972144 -10 3 C-10.99 2.34 -11.98 1.68 -13 1 C-11.58622218 0.63447197 -10.16879424 0.28304505 -8.75 -0.0625 C-7.96109375 -0.25972656 -7.1721875 -0.45695313 -6.359375 -0.66015625 C-3.89605178 -1.01497267 -2.34395868 -0.76877544 0 0 Z " fill="#07070C" transform="translate(136,177)"/>
<path d="M0 0 C0 0.99 0 1.98 0 3 C-3.465 4.485 -3.465 4.485 -7 6 C-7 5.34 -7 4.68 -7 4 C-6.34 3.67 -5.68 3.34 -5 3 C-5.99 2.34 -6.98 1.68 -8 1 C-5.23735711 0.40267181 -2.83967231 0 0 0 Z " fill="#9F9F9D" transform="translate(145,173)"/>
<path d="M0 0 C1.9451 2.91765 2.45276317 4.62537285 3 8 C0.03 7.505 0.03 7.505 -3 7 C-2.01 4.69 -1.02 2.38 0 0 Z " fill="#222227" transform="translate(460,158)"/>
<path d="M0 0 C0.99 0 1.98 0 3 0 C3.33 1.32 3.66 2.64 4 4 C2.35 4.33 0.7 4.66 -1 5 C-1.33 6.32 -1.66 7.64 -2 9 C-2.33 8.34 -2.66 7.68 -3 7 C-2.06421005 4.64018187 -1.06652192 2.30368736 0 0 Z " fill="#3A3A3D" transform="translate(226,126)"/>
<path d="M0 0 C0.33 0 0.66 0 1 0 C1 1.98 1 3.96 1 6 C0.01 6.495 0.01 6.495 -1 7 C-1.66 7.99 -2.32 8.98 -3 10 C-3.75 8.375 -3.75 8.375 -4 6 C-2.125 2.75 -2.125 2.75 0 0 Z " fill="#333336" transform="translate(62,113)"/>
<path d="M0 0 C0.66 0.66 1.32 1.32 2 2 C1.625 4.625 1.625 4.625 1 7 C0.01 7 -0.98 7 -2 7 C-2 5.68 -2 4.36 -2 3 C-1.34 3 -0.68 3 0 3 C0 2.01 0 1.02 0 0 Z " fill="#292A2E" transform="translate(422,400)"/>
<path d="M0 0 C2.6895528 2.6895528 3.69331154 5.45327417 5 9 C4.67 9.99 4.34 10.98 4 12 C4 11.34 4 10.68 4 10 C2.68 9.34 1.36 8.68 0 8 C0.66 8 1.32 8 2 8 C1.67 7.236875 1.34 6.47375 1 5.6875 C0 3 0 3 0 0 Z " fill="#6E6E70" transform="translate(90,373)"/>
<path d="M0 0 C0.598125 0.763125 1.19625 1.52625 1.8125 2.3125 C3.46959332 4.3483575 5.10297674 6.1978279 7 8 C6.01 8.66 5.02 9.32 4 10 C0 3.375 0 3.375 0 0 Z " fill="#09090E" transform="translate(47,364)"/>
<path d="M0 0 C0.33 0 0.66 0 1 0 C1.125 5.75 1.125 5.75 0 8 C-0.66 8 -1.32 8 -2 8 C-2.66 9.32 -3.32 10.64 -4 12 C-3.33501617 7.61110675 -1.81242323 4.0188515 0 0 Z " fill="#828185" transform="translate(152,309)"/>
<path d="M0 0 C0.99 0.33 1.98 0.66 3 1 C2.34 3.31 1.68 5.62 1 8 C0.34 8 -0.32 8 -1 8 C-1.04241723 5.66705225 -1.04092937 3.33297433 -1 1 C-0.67 0.67 -0.34 0.34 0 0 Z " fill="#101116" transform="translate(291,265)"/>
<path d="M0 0 C0.33 0 0.66 0 1 0 C1.33 1.98 1.66 3.96 2 6 C-0.475 7.485 -0.475 7.485 -3 9 C-2.01 6.03 -1.02 3.06 0 0 Z " fill="#4B4B4F" transform="translate(202,186)"/>
<path d="M0 0 C2.0625 1.75 2.0625 1.75 4 4 C3.75 6.25 3.75 6.25 3 8 C2.34 7.34 1.68 6.68 1 6 C1 5.01 1 4.02 1 3 C0.34 3 -0.32 3 -1 3 C-0.67 2.01 -0.34 1.02 0 0 Z " fill="#3E3E42" transform="translate(283,98)"/>
<path d="M0 0 C0 0.99 0 1.98 0 3 C-3 5.1875 -3 5.1875 -6 7 C-6.66 6.67 -7.32 6.34 -8 6 C-7.01 5.67 -6.02 5.34 -5 5 C-5 4.01 -5 3.02 -5 2 C-2 0 -2 0 0 0 Z " fill="#717176" transform="translate(147,75)"/>
<path d="M0 0 C0.66 0.66 1.32 1.32 2 2 C0.56163249 1.88541307 -0.87570966 1.75790884 -2.3125 1.625 C-3.11300781 1.55539063 -3.91351563 1.48578125 -4.73828125 1.4140625 C-7 1 -7 1 -10 -1 C-6.18029984 -2.46911544 -3.69358471 -1.52561108 0 0 Z " fill="#4C4C4F" transform="translate(325,62)"/>
<path d="M0 0 C1.32 0.66 2.64 1.32 4 2 C3.34 2 2.68 2 2 2 C2.33 3.32 2.66 4.64 3 6 C1.02 4.68 -0.96 3.36 -3 2 C-2.01 1.34 -1.02 0.68 0 0 Z " fill="#57585A" transform="translate(338,380)"/>
<path d="M0 0 C2.39223697 2.39223697 2.6758631 3.67759676 3 7 C2.01 8.485 2.01 8.485 1 10 C0.63883954 8.5225254 0.28624952 7.04295325 -0.0625 5.5625 C-0.25972656 4.73878906 -0.45695312 3.91507812 -0.66015625 3.06640625 C-0.82837891 2.04353516 -0.82837891 2.04353516 -1 1 C-0.67 0.67 -0.34 0.34 0 0 Z " fill="#47464A" transform="translate(321,353)"/>
<path d="M0 0 C0.99 1.485 0.99 1.485 2 3 C2.66 3 3.32 3 4 3 C4.33 4.65 4.66 6.3 5 8 C2.525 7.01 2.525 7.01 0 6 C0 4.02 0 2.04 0 0 Z " fill="#323237" transform="translate(448,287)"/>
<path d="M0 0 C0.33 0 0.66 0 1 0 C1.36923077 6.52307692 1.36923077 6.52307692 -0.5 8.9375 C-0.995 9.288125 -1.49 9.63875 -2 10 C-3 8 -3 8 -2.44140625 6.0546875 C-2.15136719 5.33539063 -1.86132812 4.61609375 -1.5625 3.875 C-1.27503906 3.15054688 -0.98757812 2.42609375 -0.69140625 1.6796875 C-0.46324219 1.12539062 -0.23507813 0.57109375 0 0 Z " fill="#454549" transform="translate(181,238)"/>
<path d="M0 0 C1.32 0.33 2.64 0.66 4 1 C3.67 3.31 3.34 5.62 3 8 C0.4345406 5.4345406 0.45953913 3.52313332 0 0 Z " fill="#6A6A6D" transform="translate(250,165)"/>
<path d="M0 0 C2.64 0 5.28 0 8 0 C5.37801226 2.15377564 3.35595828 3.40072174 0 4 C0 2.68 0 1.36 0 0 Z " fill="#0C0B11" transform="translate(116,153)"/>
<path d="M0 0 C2.31 0.33 4.62 0.66 7 1 C4.64031256 3.09749995 3.45383006 3.96905704 0.25 4.1875 C-0.86375 4.0946875 -0.86375 4.0946875 -2 4 C-1.34 2.68 -0.68 1.36 0 0 Z " fill="#2A2B30" transform="translate(130,82)"/>
<path d="M0 0 C2.64 0.66 5.28 1.32 8 2 C8 2.99 8 3.98 8 5 C5.03 4.505 5.03 4.505 2 4 C2 3.34 2 2.68 2 2 C1.34 2 0.68 2 0 2 C0 1.34 0 0.68 0 0 Z " fill="#4C4A50" transform="translate(307,56)"/>
<path d="M0 0 C-2.17424117 2.50037734 -3.73045798 3.43628586 -7 4 C-7 3.01 -7 2.02 -7 1 C-3.375 -1.125 -3.375 -1.125 0 0 Z " fill="#5B5B5F" transform="translate(361,455)"/>
<path d="M0 0 C0.33 0 0.66 0 1 0 C1.25 6.625 1.25 6.625 -1 10 C-2.15837626 5.94568308 -1.83691257 3.78187881 0 0 Z " fill="#27262A" transform="translate(174,329)"/>
<path d="M0 0 C0.33 0 0.66 0 1 0 C1.36923077 5.53846154 1.36923077 5.53846154 -0.5 7.875 C-1.2425 8.431875 -1.2425 8.431875 -2 9 C-2.25 3.375 -2.25 3.375 0 0 Z " fill="#575659" transform="translate(479,269)"/>
<path d="M0 0 C0.66 1.32 1.32 2.64 2 4 C1.34 4.66 0.68 5.32 0 6 C-0.99 6 -1.98 6 -3 6 C-2.625 3.5625 -2.625 3.5625 -2 1 C-1.34 0.67 -0.68 0.34 0 0 Z " fill="#2B2B2F" transform="translate(185,232)"/>
<path d="M0 0 C0.33 1.32 0.66 2.64 1 4 C1.66 4 2.32 4 3 4 C3 5.65 3 7.3 3 9 C2.01 8.67 1.02 8.34 0 8 C-0.38063221 5.6739143 -0.71269945 3.33944736 -1 1 C-0.67 0.67 -0.34 0.34 0 0 Z " fill="#3C3B44" transform="translate(474,204)"/>
<path d="M0 0 C2.95183101 2.95183101 3.08663988 5.95511947 4 10 C2 8.375 2 8.375 0 6 C-0.25 2.75 -0.25 2.75 0 0 Z " fill="#37363B" transform="translate(313,173)"/>
<path d="M0 0 C0.33 0.66 0.66 1.32 1 2 C1.99 2.33 2.98 2.66 4 3 C2.35 4.32 0.7 5.64 -1 7 C-2 4 -2 4 -1.0625 1.8125 C-0.5365625 0.9153125 -0.5365625 0.9153125 0 0 Z " fill="#5D5C60" transform="translate(214,155)"/>
<path d="M0 0 C-2.5654594 2.5654594 -4.47686668 2.54046087 -8 3 C-7.67 2.01 -7.34 1.02 -7 0 C-4.3333581 -1.33332095 -2.83319697 -0.67102033 0 0 Z " fill="#606064" transform="translate(124,121)"/>
<path d="M0 0 C-3.44450737 2.29633824 -5.93812283 2.54016485 -10 3 C-10 2.34 -10 1.68 -10 1 C-6.21812119 -0.83691257 -4.05431692 -1.15837626 0 0 Z " fill="#050409" transform="translate(313,474)"/>
<path d="M0 0 C0.33 0.66 0.66 1.32 1 2 C3.52733235 2.65555119 3.52733235 2.65555119 6 3 C5.01 3.99 4.02 4.98 3 6 C1.5 4.6875 1.5 4.6875 0 3 C0 2.01 0 1.02 0 0 Z " fill="#0F0F15" transform="translate(177,369)"/>
<path d="M0 0 C2 1 2 1 2.75 2.9375 C2.8325 3.618125 2.915 4.29875 3 5 C2.34 5.66 1.68 6.32 1 7 C0.01 6.01 -0.98 5.02 -2 4 C-1.34 2.68 -0.68 1.36 0 0 Z " fill="#111017" transform="translate(170,334)"/>
<path d="M0 0 C0.33 1.32 0.66 2.64 1 4 C-0.32 4.33 -1.64 4.66 -3 5 C-3.33 3.68 -3.66 2.36 -4 1 C-2 0 -2 0 0 0 Z " fill="#202026" transform="translate(149,326)"/>
<path d="M0 0 C1.39195915 4.17587745 -0.17676781 6.13474776 -2 10 C-2.33 10 -2.66 10 -3 10 C-3.125 4.25 -3.125 4.25 -2 2 C-1.34 2 -0.68 2 0 2 C0 1.34 0 0.68 0 0 Z " fill="#5F6062" transform="translate(200,264)"/>
<path d="M0 0 C1.98 0.495 1.98 0.495 4 1 C2.84826645 3.46800047 1.95216435 5.04783565 0 7 C-1.125 2.25 -1.125 2.25 0 0 Z " fill="#3C3D41" transform="translate(92,250)"/>
<path d="M0 0 C2.4294516 3.6441774 2.16179575 5.71241272 2 10 C-0.13262124 6.80106814 -0.59021548 4.77001757 -1 1 C-0.67 0.67 -0.34 0.34 0 0 Z " fill="#626266" transform="translate(272,220)"/>
<path d="M0 0 C1.98 0 3.96 0 6 0 C6 0.99 6 1.98 6 3 C4.02 3.33 2.04 3.66 0 4 C0 2.68 0 1.36 0 0 Z " fill="#4C4C50" transform="translate(124,117)"/>
<path d="M0 0 C2.97 0.495 2.97 0.495 6 1 C2.81237635 3.12508244 0.73487777 3.5020163 -3 4 C-2.34 3.67 -1.68 3.34 -1 3 C-0.67 2.01 -0.34 1.02 0 0 Z " fill="#737376" transform="translate(183,58)"/>
</svg>
